<svg width="240" height="238" viewBox="0 0 240 238" fill="none" xmlns="http://www.w3.org/2000/svg">
<rect width="240" height="238" rx="49" fill="url(#paint0_linear_14_135)"/>
<path fill-rule="evenodd" clip-rule="evenodd" d="M111.563 65.8754C111.344 66.3586 111.139 66.8522 110.949 67.3559L81.0683 146.795C76.4017 159.201 82.6759 173.041 95.0821 177.708L111.758 183.98L87.8448 192.844C75.4162 197.45 61.6064 191.109 56.9998 178.681L27.5026 99.0986C22.8959 86.6701 29.2369 72.8603 41.6654 68.2537L81.4632 53.5026C93.2802 49.1226 106.346 54.6393 111.563 65.8754Z" fill="#CED7F4" fill-opacity="0.74"/>
<rect x="129.78" y="41" width="90.4436" height="132.873" rx="24" transform="rotate(20.6139 129.78 41)" fill="#FEFEFE"/>
<path d="M131.625 132.477L123.625 115.977C123.625 115.977 121.125 110.977 126.125 108.977C131.125 106.977 132.625 111.977 132.625 111.977L137.125 121.477C138.34 123.28 139.125 123.321 140.625 122.477L174.625 106.477C180.625 103.977 184.125 111.976 179.125 114.977L138.625 133.977C135.09 135.62 133.479 135.507 131.625 132.477Z" fill="#3A61D5"/>
<defs>
<linearGradient id="paint0_linear_14_135" x1="120" y1="0" x2="120" y2="191" gradientUnits="userSpaceOnUse">
<stop stop-color="#3A68D4"/>
<stop offset="1" stop-color="#3743DA"/>
</linearGradient>
</defs>
</svg>
