<svg width="885" height="238" viewBox="0 0 885 238" fill="none" xmlns="http://www.w3.org/2000/svg">
<rect width="240" height="238" rx="49" fill="url(#paint0_linear_11_125)"/>
<path fill-rule="evenodd" clip-rule="evenodd" d="M111.563 65.8754C111.344 66.3586 111.139 66.8522 110.949 67.3559L81.0683 146.795C76.4017 159.201 82.6759 173.041 95.0821 177.708L111.758 183.98L87.8448 192.844C75.4162 197.45 61.6064 191.109 56.9998 178.681L27.5026 99.0986C22.8959 86.6701 29.2369 72.8603 41.6654 68.2537L81.4632 53.5026C93.2802 49.1226 106.346 54.6393 111.563 65.8754Z" fill="#CED7F4" fill-opacity="0.74"/>
<rect x="129.78" y="41" width="90.4436" height="132.873" rx="24" transform="rotate(20.6139 129.78 41)" fill="#FEFEFE"/>
<path d="M131.625 132.477L123.625 115.977C123.625 115.977 121.125 110.977 126.125 108.977C131.125 106.977 132.625 111.977 132.625 111.977L137.125 121.477C138.34 123.28 139.125 123.321 140.625 122.477L174.625 106.477C180.625 103.977 184.125 111.976 179.125 114.977L138.625 133.977C135.09 135.62 133.479 135.507 131.625 132.477Z" fill="#3A61D5"/>
<path d="M273.7 97.4C273.233 96.6667 272.8 95.6667 272.4 94.4C272 93.1333 271.8 91.8 271.8 90.4C271.8 87.8 272.367 85.9333 273.5 84.8C274.7 83.6667 276.233 83.1 278.1 83.1H321.7C322.167 83.8333 322.6 84.8333 323 86.1C323.4 87.3667 323.6 88.7 323.6 90.1C323.6 92.7 323 94.5667 321.8 95.7C320.667 96.8333 319.167 97.4 317.3 97.4H306.2V143.6C305.467 143.8 304.3 144 302.7 144.2C301.167 144.4 299.633 144.5 298.1 144.5C296.567 144.5 295.2 144.367 294 144.1C292.867 143.9 291.9 143.5 291.1 142.9C290.3 142.3 289.7 141.467 289.3 140.4C288.9 139.333 288.7 137.933 288.7 136.2V97.4H273.7ZM348.539 133.2C349.672 133.2 350.906 133.1 352.239 132.9C353.639 132.633 354.672 132.3 355.339 131.9V123.9L348.139 124.5C346.272 124.633 344.739 125.033 343.539 125.7C342.339 126.367 341.739 127.367 341.739 128.7C341.739 130.033 342.239 131.133 343.239 132C344.306 132.8 346.072 133.2 348.539 133.2ZM347.739 93.9C351.339 93.9 354.606 94.2667 357.539 95C360.539 95.7333 363.072 96.8667 365.139 98.4C367.272 99.8667 368.906 101.767 370.039 104.1C371.172 106.367 371.739 109.067 371.739 112.2V134.6C371.739 136.333 371.239 137.767 370.239 138.9C369.306 139.967 368.172 140.9 366.839 141.7C362.506 144.3 356.406 145.6 348.539 145.6C345.006 145.6 341.806 145.267 338.939 144.6C336.139 143.933 333.706 142.933 331.639 141.6C329.639 140.267 328.072 138.567 326.939 136.5C325.872 134.433 325.339 132.033 325.339 129.3C325.339 124.7 326.706 121.167 329.439 118.7C332.172 116.233 336.406 114.7 342.139 114.1L355.239 112.7V112C355.239 110.067 354.372 108.7 352.639 107.9C350.972 107.033 348.539 106.6 345.339 106.6C342.806 106.6 340.339 106.867 337.939 107.4C335.539 107.933 333.372 108.6 331.439 109.4C330.572 108.8 329.839 107.9 329.239 106.7C328.639 105.433 328.339 104.133 328.339 102.8C328.339 101.067 328.739 99.7 329.539 98.7C330.406 97.6333 331.706 96.7333 333.439 96C335.372 95.2667 337.639 94.7333 340.239 94.4C342.906 94.0667 345.406 93.9 347.739 93.9ZM423.134 129.5C423.134 134.567 421.234 138.533 417.434 141.4C413.634 144.267 408.034 145.7 400.634 145.7C397.834 145.7 395.234 145.5 392.834 145.1C390.434 144.7 388.367 144.1 386.634 143.3C384.967 142.433 383.634 141.367 382.634 140.1C381.7 138.833 381.234 137.333 381.234 135.6C381.234 134 381.567 132.667 382.234 131.6C382.9 130.467 383.7 129.533 384.634 128.8C386.567 129.867 388.767 130.833 391.234 131.7C393.767 132.5 396.667 132.9 399.934 132.9C402 132.9 403.567 132.6 404.634 132C405.767 131.4 406.334 130.6 406.334 129.6C406.334 128.667 405.934 127.933 405.134 127.4C404.334 126.867 403 126.433 401.134 126.1L398.134 125.5C392.334 124.367 388 122.6 385.134 120.2C382.334 117.733 380.934 114.233 380.934 109.7C380.934 107.233 381.467 105 382.534 103C383.6 101 385.1 99.3333 387.034 98C388.967 96.6667 391.267 95.6333 393.934 94.9C396.667 94.1667 399.667 93.8 402.934 93.8C405.4 93.8 407.7 94 409.834 94.4C412.034 94.7333 413.934 95.2667 415.534 96C417.134 96.7333 418.4 97.7 419.334 98.9C420.267 100.033 420.734 101.4 420.734 103C420.734 104.533 420.434 105.867 419.834 107C419.3 108.067 418.6 108.967 417.734 109.7C417.2 109.367 416.4 109.033 415.334 108.7C414.267 108.3 413.1 107.967 411.834 107.7C410.567 107.367 409.267 107.1 407.934 106.9C406.667 106.7 405.5 106.6 404.434 106.6C402.234 106.6 400.534 106.867 399.334 107.4C398.134 107.867 397.534 108.633 397.534 109.7C397.534 110.433 397.867 111.033 398.534 111.5C399.2 111.967 400.467 112.4 402.334 112.8L405.434 113.5C411.834 114.967 416.367 117 419.034 119.6C421.767 122.133 423.134 125.433 423.134 129.5ZM478.852 135.2C478.519 138.333 477.586 140.733 476.052 142.4C474.586 144.067 472.419 144.9 469.552 144.9C467.419 144.9 465.519 144.4 463.852 143.4C462.186 142.333 460.386 140.567 458.452 138.1L448.552 125.7V143.9C447.819 144.033 446.719 144.2 445.252 144.4C443.852 144.667 442.419 144.8 440.952 144.8C439.486 144.8 438.152 144.7 436.952 144.5C435.819 144.3 434.852 143.9 434.052 143.3C433.252 142.7 432.619 141.9 432.152 140.9C431.752 139.833 431.552 138.467 431.552 136.8V78.9C432.286 78.7 433.352 78.5 434.752 78.3C436.219 78.0333 437.686 77.9 439.152 77.9C440.619 77.9 441.919 78 443.052 78.2C444.252 78.4 445.252 78.8 446.052 79.4C446.852 80 447.452 80.8333 447.852 81.9C448.319 82.9 448.552 84.2333 448.552 85.9V112.3L465.752 94.7C469.219 94.7 471.986 95.4667 474.052 97C476.186 98.5333 477.252 100.467 477.252 102.8C477.252 103.8 477.086 104.733 476.752 105.6C476.419 106.4 475.886 107.233 475.152 108.1C474.486 108.967 473.586 109.9 472.452 110.9C471.386 111.833 470.119 112.933 468.652 114.2L462.852 119.2L478.852 135.2ZM526.649 129.5C526.649 134.567 524.749 138.533 520.949 141.4C517.149 144.267 511.549 145.7 504.149 145.7C501.349 145.7 498.749 145.5 496.349 145.1C493.949 144.7 491.883 144.1 490.149 143.3C488.483 142.433 487.149 141.367 486.149 140.1C485.216 138.833 484.749 137.333 484.749 135.6C484.749 134 485.083 132.667 485.749 131.6C486.416 130.467 487.216 129.533 488.149 128.8C490.083 129.867 492.283 130.833 494.749 131.7C497.283 132.5 500.183 132.9 503.449 132.9C505.516 132.9 507.083 132.6 508.149 132C509.283 131.4 509.849 130.6 509.849 129.6C509.849 128.667 509.449 127.933 508.649 127.4C507.849 126.867 506.516 126.433 504.649 126.1L501.649 125.5C495.849 124.367 491.516 122.6 488.649 120.2C485.849 117.733 484.449 114.233 484.449 109.7C484.449 107.233 484.983 105 486.049 103C487.116 101 488.616 99.3333 490.549 98C492.483 96.6667 494.783 95.6333 497.449 94.9C500.183 94.1667 503.183 93.8 506.449 93.8C508.916 93.8 511.216 94 513.349 94.4C515.549 94.7333 517.449 95.2667 519.049 96C520.649 96.7333 521.916 97.7 522.849 98.9C523.783 100.033 524.249 101.4 524.249 103C524.249 104.533 523.949 105.867 523.349 107C522.816 108.067 522.116 108.967 521.249 109.7C520.716 109.367 519.916 109.033 518.849 108.7C517.783 108.3 516.616 107.967 515.349 107.7C514.083 107.367 512.783 107.1 511.449 106.9C510.183 106.7 509.016 106.6 507.949 106.6C505.749 106.6 504.049 106.867 502.849 107.4C501.649 107.867 501.049 108.633 501.049 109.7C501.049 110.433 501.383 111.033 502.049 111.5C502.716 111.967 503.983 112.4 505.849 112.8L508.949 113.5C515.349 114.967 519.883 117 522.549 119.6C525.283 122.133 526.649 125.433 526.649 129.5ZM553.188 113.6C553.188 108.4 553.988 103.8 555.588 99.8C557.254 95.8 559.488 92.4667 562.288 89.8C565.154 87.0667 568.488 85 572.288 83.6C576.154 82.2 580.321 81.5 584.788 81.5C589.254 81.5 593.388 82.2 597.188 83.6C601.054 85 604.421 87.0667 607.288 89.8C610.154 92.4667 612.388 95.8 613.988 99.8C615.654 103.8 616.488 108.4 616.488 113.6C616.488 120.133 615.288 125.7 612.888 130.3C610.488 134.833 607.221 138.4 603.088 141C604.088 141.467 605.254 141.967 606.588 142.5C607.988 143.033 609.421 143.567 610.888 144.1C612.421 144.633 613.988 145.133 615.588 145.6C617.188 146.133 618.688 146.6 620.088 147C620.154 147.4 620.188 147.733 620.188 148C620.188 148.333 620.188 148.633 620.188 148.9C620.188 152.7 619.188 155.467 617.188 157.2C615.254 158.933 612.688 159.8 609.488 159.8C606.421 159.8 603.254 158.933 599.988 157.2C596.721 155.533 593.388 153.1 589.988 149.9L585.588 145.8H584.788C580.254 145.8 576.054 145.1 572.188 143.7C568.321 142.233 564.988 140.133 562.188 137.4C559.388 134.667 557.188 131.3 555.588 127.3C553.988 123.3 553.188 118.733 553.188 113.6ZM571.188 113.6C571.188 119.667 572.421 124.2 574.888 127.2C577.354 130.2 580.654 131.7 584.788 131.7C588.988 131.7 592.321 130.2 594.788 127.2C597.254 124.2 598.488 119.667 598.488 113.6C598.488 107.6 597.254 103.1 594.788 100.1C592.388 97.1 589.088 95.6 584.888 95.6C580.754 95.6 577.421 97.1 574.888 100.1C572.421 103.033 571.188 107.533 571.188 113.6ZM625.395 96.1C626.062 95.9 627.095 95.7 628.495 95.5C629.962 95.3 631.462 95.2 632.995 95.2C634.462 95.2 635.762 95.3 636.895 95.5C638.095 95.7 639.095 96.1 639.895 96.7C640.695 97.3 641.295 98.1333 641.695 99.2C642.162 100.2 642.395 101.533 642.395 103.2V124.7C642.395 127.433 643.062 129.4 644.395 130.6C645.729 131.733 647.662 132.3 650.195 132.3C651.729 132.3 652.962 132.167 653.895 131.9C654.895 131.633 655.662 131.367 656.195 131.1V96.1C656.862 95.9 657.895 95.7 659.295 95.5C660.762 95.3 662.262 95.2 663.795 95.2C665.262 95.2 666.562 95.3 667.695 95.5C668.895 95.7 669.895 96.1 670.695 96.7C671.495 97.3 672.095 98.1333 672.495 99.2C672.962 100.2 673.195 101.533 673.195 103.2V133.6C673.195 136.933 671.795 139.433 668.995 141.1C666.662 142.567 663.862 143.667 660.595 144.4C657.395 145.2 653.895 145.6 650.095 145.6C646.495 145.6 643.162 145.2 640.095 144.4C637.095 143.6 634.495 142.367 632.295 140.7C630.095 139.033 628.395 136.9 627.195 134.3C625.995 131.633 625.395 128.433 625.395 124.7V96.1ZM704.398 133.2C705.532 133.2 706.765 133.1 708.098 132.9C709.498 132.633 710.532 132.3 711.198 131.9V123.9L703.998 124.5C702.132 124.633 700.598 125.033 699.398 125.7C698.198 126.367 697.598 127.367 697.598 128.7C697.598 130.033 698.098 131.133 699.098 132C700.165 132.8 701.932 133.2 704.398 133.2ZM703.598 93.9C707.198 93.9 710.465 94.2667 713.398 95C716.398 95.7333 718.932 96.8667 720.998 98.4C723.132 99.8667 724.765 101.767 725.898 104.1C727.032 106.367 727.598 109.067 727.598 112.2V134.6C727.598 136.333 727.098 137.767 726.098 138.9C725.165 139.967 724.032 140.9 722.698 141.7C718.365 144.3 712.265 145.6 704.398 145.6C700.865 145.6 697.665 145.267 694.798 144.6C691.998 143.933 689.565 142.933 687.498 141.6C685.498 140.267 683.932 138.567 682.798 136.5C681.732 134.433 681.198 132.033 681.198 129.3C681.198 124.7 682.565 121.167 685.298 118.7C688.032 116.233 692.265 114.7 697.998 114.1L711.098 112.7V112C711.098 110.067 710.232 108.7 708.498 107.9C706.832 107.033 704.398 106.6 701.198 106.6C698.665 106.6 696.198 106.867 693.798 107.4C691.398 107.933 689.232 108.6 687.298 109.4C686.432 108.8 685.698 107.9 685.098 106.7C684.498 105.433 684.198 104.133 684.198 102.8C684.198 101.067 684.598 99.7 685.398 98.7C686.265 97.6333 687.565 96.7333 689.298 96C691.232 95.2667 693.498 94.7333 696.098 94.4C698.765 94.0667 701.265 93.9 703.598 93.9ZM755.293 143.9C754.56 144.033 753.46 144.2 751.993 144.4C750.593 144.667 749.16 144.8 747.693 144.8C746.226 144.8 744.893 144.7 743.693 144.5C742.56 144.3 741.593 143.9 740.793 143.3C739.993 142.7 739.36 141.9 738.893 140.9C738.493 139.833 738.293 138.467 738.293 136.8V78.8C739.026 78.6667 740.093 78.5 741.493 78.3C742.96 78.0333 744.426 77.9 745.893 77.9C747.36 77.9 748.66 78 749.793 78.2C750.993 78.4 751.993 78.8 752.793 79.4C753.593 80 754.193 80.8333 754.593 81.9C755.06 82.9 755.293 84.2333 755.293 85.9V143.9ZM765.62 81.9C765.62 79.3667 766.454 77.2333 768.12 75.5C769.854 73.7667 772.12 72.9 774.92 72.9C777.72 72.9 779.954 73.7667 781.62 75.5C783.354 77.2333 784.22 79.3667 784.22 81.9C784.22 84.4333 783.354 86.5667 781.62 88.3C779.954 90.0333 777.72 90.9 774.92 90.9C772.12 90.9 769.854 90.0333 768.12 88.3C766.454 86.5667 765.62 84.4333 765.62 81.9ZM783.42 143.9C782.687 144.033 781.587 144.2 780.12 144.4C778.72 144.667 777.287 144.8 775.82 144.8C774.354 144.8 773.02 144.7 771.82 144.5C770.687 144.3 769.72 143.9 768.92 143.3C768.12 142.7 767.487 141.9 767.02 140.9C766.62 139.833 766.42 138.467 766.42 136.8V96.1C767.154 95.9667 768.22 95.8 769.62 95.6C771.087 95.3333 772.554 95.2 774.02 95.2C775.487 95.2 776.787 95.3 777.92 95.5C779.12 95.7 780.12 96.1 780.92 96.7C781.72 97.3 782.32 98.1333 782.72 99.2C783.187 100.2 783.42 101.533 783.42 103.2V143.9ZM811.243 127.3C811.243 129.033 811.776 130.267 812.843 131C813.976 131.733 815.543 132.1 817.543 132.1C818.543 132.1 819.576 132.033 820.643 131.9C821.71 131.7 822.643 131.467 823.443 131.2C824.043 131.933 824.543 132.767 824.943 133.7C825.41 134.567 825.643 135.633 825.643 136.9C825.643 139.433 824.676 141.5 822.743 143.1C820.876 144.7 817.543 145.5 812.743 145.5C806.876 145.5 802.343 144.167 799.143 141.5C796.01 138.833 794.443 134.5 794.443 128.5V85.7C795.176 85.5 796.21 85.3 797.543 85.1C798.943 84.8333 800.41 84.7 801.943 84.7C804.876 84.7 807.143 85.2333 808.743 86.3C810.41 87.3 811.243 89.4667 811.243 92.8V99.2H824.343C824.743 99.9333 825.11 100.867 825.443 102C825.843 103.067 826.043 104.267 826.043 105.6C826.043 107.933 825.51 109.633 824.443 110.7C823.443 111.7 822.076 112.2 820.343 112.2H811.243V127.3ZM841.882 131.6C841.149 129.933 840.349 128.067 839.482 126C838.682 123.933 837.815 121.567 836.882 118.9C836.015 116.233 835.082 113.2 834.082 109.8C833.149 106.333 832.149 102.367 831.082 97.9C832.015 96.9667 833.249 96.1667 834.782 95.5C836.382 94.7667 838.115 94.4 839.982 94.4C842.315 94.4 844.249 94.9 845.782 95.9C847.315 96.8333 848.449 98.6333 849.182 101.3L857.082 128.8H857.482C858.282 126.533 859.049 124.067 859.782 121.4C860.582 118.733 861.349 116 862.082 113.2C862.815 110.333 863.482 107.5 864.082 104.7C864.749 101.833 865.315 99.0333 865.782 96.3C868.182 95.0333 870.815 94.4 873.682 94.4C876.015 94.4 877.949 94.9 879.482 95.9C881.015 96.9 881.782 98.6333 881.782 101.1C881.782 102.9 881.549 105 881.082 107.4C880.615 109.733 879.982 112.233 879.182 114.9C878.449 117.567 877.549 120.333 876.482 123.2C875.482 126 874.415 128.767 873.282 131.5C872.149 134.233 870.982 136.833 869.782 139.3C868.582 141.7 867.415 143.867 866.282 145.8C864.415 149.067 862.682 151.733 861.082 153.8C859.482 155.867 857.949 157.467 856.482 158.6C855.015 159.8 853.549 160.6 852.082 161C850.615 161.467 849.082 161.7 847.482 161.7C844.682 161.7 842.415 160.867 840.682 159.2C838.949 157.533 837.915 155.367 837.582 152.7C839.715 151.033 841.849 149.167 843.982 147.1C846.115 145.1 848.049 143.033 849.782 140.9C848.649 140.567 847.415 139.8 846.082 138.6C844.815 137.333 843.415 135 841.882 131.6Z" fill="#353737"/>
<defs>
<linearGradient id="paint0_linear_11_125" x1="120" y1="0" x2="120" y2="191" gradientUnits="userSpaceOnUse">
<stop stop-color="#3A68D4"/>
<stop offset="1" stop-color="#3743DA"/>
</linearGradient>
</defs>
</svg>
