<svg width="894" height="238" viewBox="0 0 894 238" fill="none" xmlns="http://www.w3.org/2000/svg">
<rect width="240" height="238" rx="49" fill="url(#paint0_linear_1_109)"/>
<path fill-rule="evenodd" clip-rule="evenodd" d="M111.563 65.8754C111.344 66.3586 111.139 66.8522 110.949 67.3559L81.0683 146.795C76.4017 159.201 82.6759 173.041 95.0821 177.708L111.758 183.98L87.8448 192.844C75.4162 197.45 61.6064 191.109 56.9998 178.681L27.5026 99.0986C22.8959 86.6701 29.2369 72.8603 41.6654 68.2537L81.4632 53.5026C93.2802 49.1226 106.346 54.6393 111.563 65.8754Z" fill="#CED7F4" fill-opacity="0.74"/>
<rect x="129.78" y="41" width="90.4436" height="132.873" rx="24" transform="rotate(20.6139 129.78 41)" fill="#FEFEFE"/>
<path d="M131.625 132.477L123.625 115.977C123.625 115.977 121.125 110.977 126.125 108.977C131.125 106.977 132.625 111.977 132.625 111.977L137.125 121.477C138.34 123.28 139.125 123.321 140.625 122.477L174.625 106.477C180.625 103.977 184.125 111.976 179.125 114.977L138.625 133.977C135.09 135.62 133.479 135.507 131.625 132.477Z" fill="#3A61D5"/>
<path d="M300.4 151.5C299.133 151.5 298.067 151.067 297.2 150.2C296.333 149.333 295.9 148.267 295.9 147V89.7H275.5C274.3 89.7 273.3 89.3 272.5 88.5C271.7 87.7 271.3 86.7 271.3 85.5C271.3 84.3 271.7 83.3 272.5 82.5C273.3 81.6333 274.3 81.2 275.5 81.2H325.3C326.5 81.2 327.5 81.6333 328.3 82.5C329.167 83.3 329.6 84.3 329.6 85.5C329.6 86.7 329.167 87.7 328.3 88.5C327.5 89.3 326.5 89.7 325.3 89.7H305V147C305 148.267 304.533 149.333 303.6 150.2C302.733 151.067 301.667 151.5 300.4 151.5ZM343.83 152C340.896 152 338.163 151.4 335.63 150.2C333.163 149 331.196 147.267 329.73 145C328.263 142.667 327.53 140 327.53 137C327.53 132.067 329.463 128.133 333.33 125.2C337.263 122.267 342.996 120.8 350.53 120.8H362.63V120C362.63 115.6 361.53 112.433 359.33 110.5C357.196 108.567 353.83 107.6 349.23 107.6C346.696 107.6 344.43 107.8 342.43 108.2C340.496 108.6 338.33 109.2 335.93 110C335.396 110.133 334.963 110.2 334.63 110.2C333.63 110.2 332.763 109.833 332.03 109.1C331.296 108.367 330.93 107.467 330.93 106.4C330.93 104.6 331.796 103.333 333.53 102.6C339.196 100.2 344.963 99 350.83 99C355.43 99 359.296 99.9333 362.43 101.8C365.63 103.667 367.963 106.1 369.43 109.1C370.963 112.033 371.73 115.233 371.73 118.7V147C371.73 148.267 371.263 149.333 370.33 150.2C369.463 151.067 368.396 151.5 367.13 151.5C365.863 151.5 364.796 151.067 363.93 150.2C363.063 149.333 362.63 148.267 362.63 147V144.4C357.696 149.467 351.43 152 343.83 152ZM347.23 144C350.163 144 352.996 143.3 355.73 141.9C358.463 140.433 360.763 138.633 362.63 136.5V128.1H351.73C341.663 128.1 336.63 130.733 336.63 136C336.63 138.4 337.43 140.333 339.03 141.8C340.696 143.267 343.43 144 347.23 144ZM403.482 152C396.815 152 390.749 150.5 385.282 147.5C384.149 146.7 383.582 145.6 383.582 144.2C383.582 143.133 383.949 142.2 384.682 141.4C385.415 140.6 386.349 140.2 387.482 140.2C388.082 140.2 388.682 140.333 389.282 140.6C391.415 141.533 393.549 142.267 395.682 142.8C397.815 143.333 400.215 143.6 402.882 143.6C410.282 143.6 413.982 141.233 413.982 136.5C413.982 134.967 413.115 133.8 411.382 133C409.715 132.2 406.949 131.3 403.082 130.3C399.149 129.367 395.882 128.4 393.282 127.4C390.749 126.4 388.549 124.9 386.682 122.9C384.882 120.833 383.982 118.133 383.982 114.8C383.982 110.133 385.649 106.333 388.982 103.4C392.382 100.467 397.215 99 403.482 99C408.615 99 413.449 99.8333 417.982 101.5C418.915 101.767 419.615 102.267 420.082 103C420.615 103.733 420.882 104.5 420.882 105.3C420.882 106.367 420.482 107.3 419.682 108.1C418.949 108.9 418.015 109.3 416.882 109.3C416.549 109.3 416.115 109.233 415.582 109.1C411.715 107.9 407.915 107.3 404.182 107.3C400.582 107.3 397.749 107.967 395.682 109.3C393.682 110.567 392.682 112.233 392.682 114.3C392.682 116.3 393.615 117.767 395.482 118.7C397.349 119.633 400.249 120.533 404.182 121.4C408.115 122.4 411.315 123.4 413.782 124.4C416.249 125.333 418.349 126.833 420.082 128.9C421.882 130.967 422.782 133.733 422.782 137.2C422.782 141.467 421.082 145 417.682 147.8C414.349 150.6 409.615 152 403.482 152ZM439.529 151.5C438.262 151.5 437.196 151.067 436.329 150.2C435.462 149.333 435.029 148.267 435.029 147V82.1C435.029 80.8333 435.462 79.7667 436.329 78.9C437.196 77.9667 438.262 77.5 439.529 77.5C440.796 77.5 441.862 77.9667 442.729 78.9C443.662 79.7667 444.129 80.8333 444.129 82.1V123L467.929 101C468.929 100.133 469.929 99.7 470.929 99.7C472.462 99.7 473.562 100.133 474.229 101C474.962 101.867 475.329 102.9 475.329 104.1C475.329 105.233 474.762 106.367 473.629 107.5L459.229 120.4L477.329 144.4C477.996 145.267 478.329 146.167 478.329 147.1C478.329 148.433 477.896 149.5 477.029 150.3C476.162 151.1 475.062 151.5 473.729 151.5C473.062 151.5 472.396 151.333 471.729 151C471.062 150.667 470.496 150.2 470.029 149.6L452.829 126.2L444.129 134.1V147C444.129 148.267 443.662 149.333 442.729 150.2C441.862 151.067 440.796 151.5 439.529 151.5ZM505.533 152C498.866 152 492.799 150.5 487.333 147.5C486.199 146.7 485.633 145.6 485.633 144.2C485.633 143.133 485.999 142.2 486.733 141.4C487.466 140.6 488.399 140.2 489.533 140.2C490.133 140.2 490.733 140.333 491.333 140.6C493.466 141.533 495.599 142.267 497.733 142.8C499.866 143.333 502.266 143.6 504.933 143.6C512.333 143.6 516.033 141.233 516.033 136.5C516.033 134.967 515.166 133.8 513.433 133C511.766 132.2 508.999 131.3 505.133 130.3C501.199 129.367 497.933 128.4 495.333 127.4C492.799 126.4 490.599 124.9 488.733 122.9C486.933 120.833 486.033 118.133 486.033 114.8C486.033 110.133 487.699 106.333 491.033 103.4C494.433 100.467 499.266 99 505.533 99C510.666 99 515.499 99.8333 520.033 101.5C520.966 101.767 521.666 102.267 522.133 103C522.666 103.733 522.933 104.5 522.933 105.3C522.933 106.367 522.533 107.3 521.733 108.1C520.999 108.9 520.066 109.3 518.933 109.3C518.599 109.3 518.166 109.233 517.633 109.1C513.766 107.9 509.966 107.3 506.233 107.3C502.633 107.3 499.799 107.967 497.733 109.3C495.733 110.567 494.733 112.233 494.733 114.3C494.733 116.3 495.666 117.767 497.533 118.7C499.399 119.633 502.299 120.533 506.233 121.4C510.166 122.4 513.366 123.4 515.833 124.4C518.299 125.333 520.399 126.833 522.133 128.9C523.933 130.967 524.833 133.733 524.833 137.2C524.833 141.467 523.133 145 519.733 147.8C516.399 150.6 511.666 152 505.533 152ZM615.856 166.2C614.59 166.2 613.523 165.667 612.656 164.6L601.756 151.6C600.09 151.867 598.09 152 595.756 152C588.756 152 582.623 150.467 577.356 147.4C572.09 144.333 568.023 140.1 565.156 134.7C562.29 129.3 560.79 123.1 560.656 116.1C560.79 109.1 562.29 102.9 565.156 97.5C568.023 92.1 572.09 87.8667 577.356 84.8C582.623 81.7333 588.756 80.2 595.756 80.2C602.756 80.2 608.856 81.7333 614.056 84.8C619.323 87.8667 623.39 92.1333 626.256 97.6C629.19 103 630.723 109.167 630.856 116.1C630.723 123.9 628.823 130.733 625.156 136.6C621.556 142.4 616.556 146.633 610.156 149.3L618.956 159C619.756 159.8 620.156 160.767 620.156 161.9C620.223 163.033 619.823 164.033 618.956 164.9C618.09 165.767 617.056 166.2 615.856 166.2ZM595.756 143.5C601.09 143.5 605.723 142.3 609.656 139.9C613.59 137.5 616.59 134.233 618.656 130.1C620.723 125.967 621.756 121.3 621.756 116.1C621.756 110.9 620.723 106.233 618.656 102.1C616.59 97.9667 613.59 94.7 609.656 92.3C605.723 89.9 601.09 88.7 595.756 88.7C590.356 88.7 585.69 89.9 581.756 92.3C577.89 94.7 574.923 97.9667 572.856 102.1C570.79 106.233 569.756 110.9 569.756 116.1C569.756 121.3 570.79 125.967 572.856 130.1C574.923 134.233 577.89 137.5 581.756 139.9C585.69 142.3 590.356 143.5 595.756 143.5ZM660.827 152C657.161 152 653.961 151.133 651.227 149.4C648.561 147.667 646.494 145.3 645.027 142.3C643.627 139.3 642.927 136 642.927 132.4V104C642.927 102.733 643.361 101.667 644.227 100.8C645.161 99.9333 646.261 99.5 647.527 99.5C648.794 99.5 649.861 99.9333 650.727 100.8C651.594 101.667 652.027 102.733 652.027 104V131.4C652.027 139.533 655.694 143.6 663.027 143.6C666.361 143.6 669.327 142.733 671.927 141C674.594 139.267 677.094 136.933 679.427 134V104C679.427 102.733 679.861 101.667 680.727 100.8C681.661 99.9333 682.761 99.5 684.027 99.5C685.294 99.5 686.361 99.9333 687.227 100.8C688.094 101.667 688.527 102.733 688.527 104V146.9C688.527 148.167 688.094 149.267 687.227 150.2C686.361 151.067 685.294 151.5 684.027 151.5C682.761 151.5 681.661 151.067 680.727 150.2C679.861 149.267 679.427 148.167 679.427 146.9V142.8C676.894 145.6 674.161 147.833 671.227 149.5C668.294 151.167 664.827 152 660.827 152ZM717.365 152C714.432 152 711.698 151.4 709.165 150.2C706.698 149 704.732 147.267 703.265 145C701.798 142.667 701.065 140 701.065 137C701.065 132.067 702.998 128.133 706.865 125.2C710.798 122.267 716.532 120.8 724.065 120.8H736.165V120C736.165 115.6 735.065 112.433 732.865 110.5C730.732 108.567 727.365 107.6 722.765 107.6C720.232 107.6 717.965 107.8 715.965 108.2C714.032 108.6 711.865 109.2 709.465 110C708.932 110.133 708.498 110.2 708.165 110.2C707.165 110.2 706.298 109.833 705.565 109.1C704.832 108.367 704.465 107.467 704.465 106.4C704.465 104.6 705.332 103.333 707.065 102.6C712.732 100.2 718.498 99 724.365 99C728.965 99 732.832 99.9333 735.965 101.8C739.165 103.667 741.498 106.1 742.965 109.1C744.498 112.033 745.265 115.233 745.265 118.7V147C745.265 148.267 744.798 149.333 743.865 150.2C742.998 151.067 741.932 151.5 740.665 151.5C739.398 151.5 738.332 151.067 737.465 150.2C736.598 149.333 736.165 148.267 736.165 147V144.4C731.232 149.467 724.965 152 717.365 152ZM720.765 144C723.698 144 726.532 143.3 729.265 141.9C731.998 140.433 734.298 138.633 736.165 136.5V128.1H725.265C715.198 128.1 710.165 130.733 710.165 136C710.165 138.4 710.965 140.333 712.565 141.8C714.232 143.267 716.965 144 720.765 144ZM765.017 151.5C763.751 151.5 762.684 151.067 761.817 150.2C760.951 149.333 760.517 148.267 760.517 147V82.1C760.517 80.8333 760.951 79.7667 761.817 78.9C762.684 77.9667 763.751 77.5 765.017 77.5C766.351 77.5 767.451 77.9333 768.317 78.8C769.184 79.6667 769.617 80.7667 769.617 82.1V147C769.617 148.267 769.151 149.333 768.217 150.2C767.351 151.067 766.284 151.5 765.017 151.5ZM789.72 89.6C788.32 89.6 787.12 89.1 786.12 88.1C785.12 87.1 784.62 85.9 784.62 84.5V84.1C784.62 82.7 785.12 81.5 786.12 80.5C787.12 79.5 788.32 79 789.72 79H790.32C791.72 79 792.92 79.5 793.92 80.5C794.92 81.5 795.42 82.7 795.42 84.1V84.5C795.42 85.9 794.92 87.1 793.92 88.1C792.92 89.1 791.72 89.6 790.32 89.6H789.72ZM789.92 151.5C788.653 151.5 787.586 151.067 786.72 150.2C785.853 149.333 785.42 148.267 785.42 147V104.1C785.42 102.833 785.853 101.767 786.72 100.9C787.586 99.9667 788.653 99.5 789.92 99.5C791.253 99.5 792.353 99.9333 793.22 100.8C794.086 101.667 794.52 102.767 794.52 104.1V147C794.52 148.267 794.053 149.333 793.12 150.2C792.253 151.067 791.186 151.5 789.92 151.5ZM827.922 152C818.189 152 813.322 147.6 813.322 138.8V107.8H806.222C805.689 107.8 805.222 107.633 804.822 107.3C804.489 106.9 804.322 106.433 804.322 105.9C804.322 105.233 804.622 104.667 805.222 104.2L818.822 90.9C819.422 90.3 819.989 90 820.522 90C821.055 90 821.489 90.2 821.822 90.6C822.222 91 822.422 91.4667 822.422 92V100H833.722C834.855 100 835.789 100.367 836.522 101.1C837.255 101.833 837.622 102.767 837.622 103.9C837.622 104.967 837.255 105.9 836.522 106.7C835.789 107.433 834.855 107.8 833.722 107.8H822.422V138C822.422 140.6 823.022 142.267 824.222 143C825.489 143.667 827.055 144 828.922 144C830.255 144 831.589 143.8 832.922 143.4C833.189 143.333 833.455 143.267 833.722 143.2C834.055 143.133 834.455 143.1 834.922 143.1C835.855 143.1 836.689 143.467 837.422 144.2C838.155 144.867 838.522 145.7 838.522 146.7C838.522 148.233 837.755 149.4 836.222 150.2C833.622 151.4 830.855 152 827.922 152ZM859.417 174.5C858.217 174.5 857.184 174.067 856.317 173.2C855.517 172.333 855.117 171.3 855.117 170.1C855.117 169.567 855.217 169.033 855.417 168.5L861.917 151.8L843.117 106C842.851 105.333 842.717 104.7 842.717 104.1C842.717 102.833 843.151 101.767 844.017 100.9C844.884 99.9667 845.951 99.5 847.217 99.5C848.151 99.5 848.984 99.7667 849.717 100.3C850.517 100.833 851.084 101.5 851.417 102.3L866.817 140.5L882.517 102.5C883.384 100.5 884.784 99.5 886.717 99.5C887.984 99.5 889.051 99.9667 889.917 100.9C890.784 101.767 891.217 102.833 891.217 104.1C891.217 104.7 891.117 105.267 890.917 105.8L863.617 171.4C862.684 173.467 861.284 174.5 859.417 174.5Z" fill="white"/>
<defs>
<linearGradient id="paint0_linear_1_109" x1="120" y1="0" x2="120" y2="191" gradientUnits="userSpaceOnUse">
<stop stop-color="#3A68D4"/>
<stop offset="1" stop-color="#3743DA"/>
</linearGradient>
</defs>
</svg>
